<svg width="198" height="199" xmlns="http://www.w3.org/2000/svg" xmlns:xlink="http://www.w3.org/1999/xlink" overflow="hidden"><defs><clipPath id="clip0"><rect x="321" y="27" width="198" height="199"/></clipPath><clipPath id="clip1"><rect x="321" y="27" width="197" height="198"/></clipPath><clipPath id="clip2"><rect x="329" y="27" width="189" height="198"/></clipPath><clipPath id="clip3"><rect x="329" y="27" width="189" height="198"/></clipPath><clipPath id="clip4"><rect x="329" y="27" width="189" height="198"/></clipPath></defs><g clip-path="url(#clip0)" transform="translate(-321 -27)"><g clip-path="url(#clip1)"><g clip-path="url(#clip2)"><g clip-path="url(#clip3)"><g clip-path="url(#clip4)"><path d="M556.833 319.885C579.263 273.679 634.902 254.405 681.108 276.835 727.314 299.265 746.589 354.904 724.158 401.11 701.728 447.316 646.088 466.591 599.883 444.16 580.907 434.949 565.626 419.56 556.548 400.519" stroke="#7F7F7F" stroke-width="9.33326" stroke-linecap="round" stroke-linejoin="round" stroke-miterlimit="10" fill="none" fill-rule="evenodd" transform="matrix(1 0 0 1.00001 -220.996 -234)"/><path d="M559.084 321.23C581.047 295.321 619.854 292.123 645.763 314.086 671.672 336.049 674.871 374.856 652.907 400.765 630.944 426.674 592.137 429.872 566.228 407.909 563.099 405.257 560.243 402.298 557.704 399.077" stroke="#7F7F7F" stroke-width="6.66662" stroke-linecap="round" stroke-linejoin="round" stroke-miterlimit="10" fill="none" fill-rule="evenodd" transform="matrix(1 0 0 1.00001 -220.996 -234)"/></g></g></g></g></g></svg>