<svg width="197" height="197" xmlns="http://www.w3.org/2000/svg" xmlns:xlink="http://www.w3.org/1999/xlink" overflow="hidden"><defs><clipPath id="clip0"><rect x="884" y="262" width="197" height="197"/></clipPath></defs><g clip-path="url(#clip0)" transform="translate(-884 -262)"><path d="M889.5 360.5C889.5 309.138 931.361 267.5 983 267.5 1034.64 267.5 1076.5 309.138 1076.5 360.5 1076.5 411.863 1034.64 453.5 983 453.5 931.361 453.5 889.5 411.863 889.5 360.5Z" stroke="#7F7F7F" stroke-width="9.33333" stroke-linecap="round" stroke-linejoin="round" stroke-miterlimit="10" fill="none" fill-rule="evenodd"/><path d="M931.5 360.5C931.5 309.138 954.557 267.5 983 267.5 1011.44 267.5 1034.5 309.138 1034.5 360.5 1034.5 411.863 1011.44 453.5 983 453.5 954.557 453.5 931.5 411.863 931.5 360.5Z" stroke="#7F7F7F" stroke-width="6.66667" stroke-linecap="round" stroke-linejoin="round" stroke-miterlimit="10" fill="none" fill-rule="evenodd"/><path d="M983.5 267.5 983.5 453.908" stroke="#7F7F7F" stroke-width="6.66667" stroke-linecap="round" stroke-linejoin="round" stroke-miterlimit="10" fill="none" fill-rule="evenodd"/><path d="M889.5 360.5 1075.91 360.5" stroke="#7F7F7F" stroke-width="6.66667" stroke-linecap="round" stroke-linejoin="round" stroke-miterlimit="10" fill="none" fill-rule="evenodd"/><path d="M917.5 426.5 1049.31 426.5" stroke="#7F7F7F" stroke-width="6.66667" stroke-linecap="round" stroke-linejoin="round" stroke-miterlimit="10" fill="none" fill-rule="evenodd"/><path d="M917.5 294.5 1049.31 294.5" stroke="#7F7F7F" stroke-width="6.66667" stroke-linecap="round" stroke-linejoin="round" stroke-miterlimit="10" fill="none" fill-rule="evenodd"/></g></svg>