<svg width="197" height="197" xmlns="http://www.w3.org/2000/svg" xmlns:xlink="http://www.w3.org/1999/xlink" overflow="hidden"><defs><clipPath id="clip0"><rect x="199" y="262" width="197" height="197"/></clipPath></defs><g clip-path="url(#clip0)" transform="translate(-199 -262)"><path d="M204.5 360.5C204.5 309.138 246.361 267.5 298 267.5 349.639 267.5 391.5 309.138 391.5 360.5 391.5 411.863 349.639 453.5 298 453.5 246.361 453.5 204.5 411.863 204.5 360.5Z" stroke="#7F7F7F" stroke-width="9.33333" stroke-linecap="round" stroke-linejoin="round" stroke-miterlimit="10" fill="none" fill-rule="evenodd"/><path d="M245.5 360.5C245.5 331.781 268.781 308.5 297.5 308.5 326.219 308.5 349.5 331.781 349.5 360.5 349.5 389.219 326.219 412.5 297.5 412.5 268.781 412.5 245.5 389.219 245.5 360.5Z" stroke="#7F7F7F" stroke-width="6.66667" stroke-linecap="round" stroke-linejoin="round" stroke-miterlimit="10" fill="none" fill-rule="evenodd"/></g></svg>